<?xml version="1.0" standalone="no"?><!-- Generator: Gravit.io --><svg xmlns="http://www.w3.org/2000/svg" xmlns:xlink="http://www.w3.org/1999/xlink" style="isolation:isolate" viewBox="0 0 120 120" width="120" height="120"><defs><clipPath id="_clipPath_iqLGKILfnEdIJDJzVmYh7gws1zVYBDT9"><rect width="120" height="120"/></clipPath></defs><g clip-path="url(#_clipPath_iqLGKILfnEdIJDJzVmYh7gws1zVYBDT9)"><circle vector-effect="non-scaling-stroke" cx="60" cy="60" r="28" fill="none" stroke-width="1.5" stroke="rgb(255,255,255)" stroke-linejoin="miter" stroke-linecap="butt" stroke-miterlimit="4"/><path d=" M 68.99 5.08 L 68.99 5.08 Q 70.37 5.08 71.85 5.68 L 71.85 5.68 L 71.59 7.22 L 71.31 7.3 L 71.31 7.3 Q 70.73 6.86 70.08 6.62 L 70.08 6.62 L 70.08 6.62 Q 69.43 6.38 68.79 6.38 L 68.79 6.38 L 68.79 6.38 Q 68.05 6.38 67.5 6.68 L 67.5 6.68 L 67.5 6.68 Q 66.95 6.98 66.66 7.46 L 66.66 7.46 L 66.66 7.46 Q 66.37 7.94 66.37 8.46 L 66.37 8.46 L 66.37 8.46 Q 66.37 9 66.7 9.41 L 66.7 9.41 L 66.7 9.41 Q 67.03 9.82 67.53 10.12 L 67.53 10.12 L 67.53 10.12 Q 68.03 10.42 68.89 10.84 L 68.89 10.84 L 68.89 10.84 Q 69.97 11.34 70.63 11.77 L 70.63 11.77 L 70.63 11.77 Q 71.29 12.2 71.76 12.86 L 71.76 12.86 L 71.76 12.86 Q 72.23 13.52 72.23 14.46 L 72.23 14.46 L 72.23 14.46 Q 72.23 15.46 71.69 16.3 L 71.69 16.3 L 71.69 16.3 Q 71.15 17.14 70.17 17.64 L 70.17 17.64 L 70.17 17.64 Q 69.19 18.14 67.93 18.14 L 67.93 18.14 L 67.93 18.14 Q 67.09 18.14 66.18 17.91 L 66.18 17.91 L 66.18 17.91 Q 65.27 17.68 64.49 17.24 L 64.49 17.24 L 64.69 15.6 L 64.91 15.5 L 64.91 15.5 Q 65.61 16.18 66.46 16.51 L 66.46 16.51 L 66.46 16.51 Q 67.31 16.84 68.09 16.84 L 68.09 16.84 L 68.09 16.84 Q 68.85 16.84 69.44 16.54 L 69.44 16.54 L 69.44 16.54 Q 70.03 16.24 70.34 15.74 L 70.34 15.74 L 70.34 15.74 Q 70.65 15.24 70.65 14.68 L 70.65 14.68 L 70.65 14.68 Q 70.65 13.84 70.01 13.33 L 70.01 13.33 L 70.01 13.33 Q 69.37 12.82 68.07 12.22 L 68.07 12.22 L 68.07 12.22 Q 67.01 11.7 66.37 11.29 L 66.37 11.29 L 66.37 11.29 Q 65.73 10.88 65.27 10.23 L 65.27 10.23 L 65.27 10.23 Q 64.81 9.58 64.81 8.64 L 64.81 8.64 L 64.81 8.64 Q 64.81 7.66 65.34 6.84 L 65.34 6.84 L 65.34 6.84 Q 65.87 6.02 66.82 5.55 L 66.82 5.55 L 66.82 5.55 Q 67.77 5.08 68.99 5.08 L 68.99 5.08 L 68.99 5.08 Z  M 76.59 5.18 L 76.49 14 L 76.57 18 L 74.95 18 L 75.05 14.14 L 74.95 5.18 L 76.59 5.18 L 76.59 5.18 Z  M 84.95 5.1 L 84.95 5.1 Q 87.69 5.1 89.15 6.66 L 89.15 6.66 L 89.15 6.66 Q 90.61 8.22 90.61 11.14 L 90.61 11.14 L 90.61 11.14 Q 90.61 14.52 89.03 16.32 L 89.03 16.32 L 89.03 16.32 Q 87.45 18.12 84.49 18.12 L 84.49 18.12 L 84.49 18.12 Q 83.67 18.12 82.5 18.09 L 82.5 18.09 L 82.5 18.09 Q 81.33 18.06 80.33 18 L 80.33 18 L 80.31 18 L 80.41 14.14 L 80.31 5.18 L 80.33 5.18 L 84.95 5.1 L 84.95 5.1 Z  M 84.75 16.78 L 84.75 16.78 Q 86.79 16.78 87.88 15.45 L 87.88 15.45 L 87.88 15.45 Q 88.97 14.12 88.97 11.48 L 88.97 11.48 L 88.97 11.48 Q 88.97 6.44 84.83 6.44 L 84.83 6.44 L 84.83 6.44 Q 83.57 6.44 81.93 6.52 L 81.93 6.52 L 81.85 14 L 81.91 16.66 L 81.91 16.66 Q 82.53 16.72 83.4 16.75 L 83.4 16.75 L 83.4 16.75 Q 84.27 16.78 84.75 16.78 L 84.75 16.78 L 84.75 16.78 Z  M 100.45 16.6 L 100.55 16.76 L 100.43 18 L 93.23 18 L 93.33 14.14 L 93.23 5.18 L 100.45 5.18 L 100.53 5.34 L 100.41 6.58 L 97.39 6.52 L 94.85 6.56 L 94.81 10.76 L 97.21 10.8 L 99.33 10.74 L 99.45 10.88 L 99.31 12.12 L 97.07 12.08 L 94.79 12.1 L 94.77 14 L 94.83 16.66 L 97.37 16.68 L 100.45 16.6 L 100.45 16.6 Z  M 24.23 11.32 L 24.23 11.32 Q 26.95 11.86 26.95 14.42 L 26.95 14.42 L 26.95 14.42 Q 26.95 16.24 25.63 17.16 L 25.63 17.16 L 25.63 17.16 Q 24.31 18.08 21.69 18.08 L 21.69 18.08 L 21.69 18.08 Q 19.93 18.08 18.87 18 L 18.87 18 L 18.85 18 L 18.95 14.14 L 18.85 5.18 L 22.41 5.16 L 22.41 5.16 Q 24.21 5.16 25.18 5.96 L 25.18 5.96 L 25.18 5.96 Q 26.15 6.76 26.15 8.28 L 26.15 8.28 L 26.15 8.28 Q 26.15 9.36 25.65 10.14 L 25.65 10.14 L 25.65 10.14 Q 25.15 10.92 24.23 11.32 L 24.23 11.32 L 24.23 11.32 Z  M 24.51 8.46 L 24.51 8.46 Q 24.51 7.42 23.94 6.95 L 23.94 6.95 L 23.94 6.95 Q 23.37 6.48 22.09 6.48 L 22.09 6.48 L 20.47 6.48 L 20.43 10.78 L 22.63 10.84 L 22.63 10.84 Q 24.51 10.4 24.51 8.46 L 24.51 8.46 L 24.51 8.46 Z  M 21.93 16.74 L 21.93 16.74 Q 23.57 16.74 24.45 16.12 L 24.45 16.12 L 24.45 16.12 Q 25.33 15.5 25.33 14.34 L 25.33 14.34 L 25.33 14.34 Q 25.33 12.38 22.87 12.1 L 22.87 12.1 L 20.41 12.12 L 20.39 14 L 20.45 16.68 L 20.45 16.68 Q 21.23 16.74 21.93 16.74 L 21.93 16.74 L 21.93 16.74 Z  M 34.57 5.18 L 38.85 18 L 37.21 18 L 36.91 16.72 L 36.19 14.52 L 33.31 14.46 L 30.71 14.52 L 29.93 16.64 L 29.61 18 L 28.01 18 L 32.71 5.18 L 34.57 5.18 L 34.57 5.18 Z  M 33.45 13.2 L 35.75 13.16 L 33.67 6.84 L 33.53 6.84 L 31.21 13.16 L 33.45 13.2 L 33.45 13.2 Z  M 45.45 5.08 L 45.45 5.08 Q 47.47 5.08 48.95 6.04 L 48.95 6.04 L 48.63 7.5 L 48.45 7.54 L 48.45 7.54 Q 47.11 6.42 45.37 6.42 L 45.37 6.42 L 45.37 6.42 Q 43.47 6.42 42.45 7.73 L 42.45 7.73 L 42.45 7.73 Q 41.43 9.04 41.43 11.56 L 41.43 11.56 L 41.43 11.56 Q 41.43 14.1 42.45 15.44 L 42.45 15.44 L 42.45 15.44 Q 43.47 16.78 45.33 16.78 L 45.33 16.78 L 45.33 16.78 Q 46.21 16.78 47.08 16.46 L 47.08 16.46 L 47.08 16.46 Q 47.95 16.14 48.67 15.56 L 48.67 15.56 L 48.87 15.66 L 48.73 17.18 L 48.73 17.18 Q 46.99 18.14 45.19 18.14 L 45.19 18.14 L 45.19 18.14 Q 42.61 18.14 41.19 16.47 L 41.19 16.47 L 41.19 16.47 Q 39.77 14.8 39.77 11.7 L 39.77 11.7 L 39.77 11.7 Q 39.77 8.52 41.25 6.8 L 41.25 6.8 L 41.25 6.8 Q 42.73 5.08 45.45 5.08 L 45.45 5.08 L 45.45 5.08 Z  M 52.89 5.18 L 52.81 14 L 52.87 18 L 51.29 18 L 51.35 14.14 L 51.29 5.18 L 52.89 5.18 L 52.89 5.18 Z  M 59.99 5.18 L 54.79 11.2 L 54.79 11.2 Q 57.45 14.64 60.35 17.66 L 60.35 17.66 L 60.33 17.86 L 60.33 17.86 Q 59.73 18.04 58.83 18.18 L 58.83 18.18 L 58.63 18.08 L 58.63 18.08 Q 55.47 14.5 53.11 11.28 L 53.11 11.28 L 53.11 11.16 L 57.39 6.3 L 58.19 5.18 L 59.99 5.18 L 59.99 5.18 Z " fill="rgb(255,255,255)"/></g></svg>