<?xml version="1.0" standalone="no"?><!-- Generator: Gravit.io --><svg xmlns="http://www.w3.org/2000/svg" xmlns:xlink="http://www.w3.org/1999/xlink" style="isolation:isolate" viewBox="0 0 120 120" width="120" height="120"><defs><clipPath id="_clipPath_NiyFy8S8YXvFLLfNmWKuiYKsZ6MNw5x5"><rect width="120" height="120"/></clipPath></defs><g clip-path="url(#_clipPath_NiyFy8S8YXvFLLfNmWKuiYKsZ6MNw5x5)"><circle vector-effect="non-scaling-stroke" cx="60" cy="60" r="28" fill="none" stroke-width="1.5" stroke="rgb(255,255,255)" stroke-linejoin="miter" stroke-linecap="butt" stroke-miterlimit="4"/><path d=" M 50.31 5.18 L 51.57 18 L 50.13 18 L 49.83 14.1 L 49.15 7.72 L 49.01 7.72 L 45.45 16.52 L 44.13 16.52 L 40.75 7.72 L 40.59 7.72 L 39.91 13.98 L 39.57 18 L 38.21 18 L 39.55 5.18 L 41.37 5.18 L 42.03 7.14 L 44.81 14.44 L 44.93 14.44 L 47.85 7.02 L 48.51 5.18 L 50.31 5.18 L 50.31 5.18 Z  M 59.63 5.18 L 63.91 18 L 62.27 18 L 61.97 16.72 L 61.25 14.52 L 58.37 14.46 L 55.77 14.52 L 54.99 16.64 L 54.67 18 L 53.07 18 L 57.77 5.18 L 59.63 5.18 L 59.63 5.18 Z  M 58.51 13.2 L 60.81 13.16 L 58.73 6.84 L 58.59 6.84 L 56.27 13.16 L 58.51 13.2 L 58.51 13.2 Z  M 72.49 16.66 L 72.61 16.8 L 72.47 18 L 66.15 18 L 66.25 14.14 L 66.15 5.18 L 67.79 5.18 L 67.69 14 L 67.75 16.66 L 72.49 16.66 L 72.49 16.66 Z  M 80.81 16.66 L 80.93 16.8 L 80.79 18 L 74.47 18 L 74.57 14.14 L 74.47 5.18 L 76.11 5.18 L 76.01 14 L 76.07 16.66 L 80.81 16.66 L 80.81 16.66 Z " fill="rgb(255,255,255)"/></g></svg>