<?xml version="1.0" standalone="no"?><!-- Generator: Gravit.io --><svg xmlns="http://www.w3.org/2000/svg" xmlns:xlink="http://www.w3.org/1999/xlink" style="isolation:isolate" viewBox="0 0 120 120" width="120" height="120"><defs><clipPath id="_clipPath_mvRdc8xrXumfAmhWoNUPEKytalJ1E99K"><rect width="120" height="120"/></clipPath></defs><g clip-path="url(#_clipPath_mvRdc8xrXumfAmhWoNUPEKytalJ1E99K)"><circle vector-effect="non-scaling-stroke" cx="60" cy="60" r="28" fill="none" stroke-width="1.5" stroke="rgb(255,255,255)" stroke-linejoin="miter" stroke-linecap="butt" stroke-miterlimit="4"/><path d=" M 30.99 5.08 L 30.99 5.08 Q 32.37 5.08 33.85 5.68 L 33.85 5.68 L 33.59 7.22 L 33.31 7.3 L 33.31 7.3 Q 32.73 6.86 32.08 6.62 L 32.08 6.62 L 32.08 6.62 Q 31.43 6.38 30.79 6.38 L 30.79 6.38 L 30.79 6.38 Q 30.05 6.38 29.5 6.68 L 29.5 6.68 L 29.5 6.68 Q 28.95 6.98 28.66 7.46 L 28.66 7.46 L 28.66 7.46 Q 28.37 7.94 28.37 8.46 L 28.37 8.46 L 28.37 8.46 Q 28.37 9 28.7 9.41 L 28.7 9.41 L 28.7 9.41 Q 29.03 9.82 29.53 10.12 L 29.53 10.12 L 29.53 10.12 Q 30.03 10.42 30.89 10.84 L 30.89 10.84 L 30.89 10.84 Q 31.97 11.34 32.63 11.77 L 32.63 11.77 L 32.63 11.77 Q 33.29 12.2 33.76 12.86 L 33.76 12.86 L 33.76 12.86 Q 34.23 13.52 34.23 14.46 L 34.23 14.46 L 34.23 14.46 Q 34.23 15.46 33.69 16.3 L 33.69 16.3 L 33.69 16.3 Q 33.15 17.14 32.17 17.64 L 32.17 17.64 L 32.17 17.64 Q 31.19 18.14 29.93 18.14 L 29.93 18.14 L 29.93 18.14 Q 29.09 18.14 28.18 17.91 L 28.18 17.91 L 28.18 17.91 Q 27.27 17.68 26.49 17.24 L 26.49 17.24 L 26.69 15.6 L 26.91 15.5 L 26.91 15.5 Q 27.61 16.18 28.46 16.51 L 28.46 16.51 L 28.46 16.51 Q 29.31 16.84 30.09 16.84 L 30.09 16.84 L 30.09 16.84 Q 30.85 16.84 31.44 16.54 L 31.44 16.54 L 31.44 16.54 Q 32.03 16.24 32.34 15.74 L 32.34 15.74 L 32.34 15.74 Q 32.65 15.24 32.65 14.68 L 32.65 14.68 L 32.65 14.68 Q 32.65 13.84 32.01 13.33 L 32.01 13.33 L 32.01 13.33 Q 31.37 12.82 30.07 12.22 L 30.07 12.22 L 30.07 12.22 Q 29.01 11.7 28.37 11.29 L 28.37 11.29 L 28.37 11.29 Q 27.73 10.88 27.27 10.23 L 27.27 10.23 L 27.27 10.23 Q 26.81 9.58 26.81 8.64 L 26.81 8.64 L 26.81 8.64 Q 26.81 7.66 27.34 6.84 L 27.34 6.84 L 27.34 6.84 Q 27.87 6.02 28.82 5.55 L 28.82 5.55 L 28.82 5.55 Q 29.77 5.08 30.99 5.08 L 30.99 5.08 L 30.99 5.08 Z  M 49.69 20.56 L 49.75 20.76 L 49.75 20.76 Q 49.55 21.14 49.39 21.36 L 49.39 21.36 L 49.39 21.36 Q 49.23 21.58 49.01 21.78 L 49.01 21.78 L 48.87 21.84 L 48.87 21.84 Q 46.93 21.34 45.12 20.4 L 45.12 20.4 L 45.12 20.4 Q 43.31 19.46 41.81 18.14 L 41.81 18.14 L 41.81 18.14 Q 41.65 18.16 41.33 18.16 L 41.33 18.16 L 41.33 18.16 Q 38.69 18.16 37.27 16.48 L 37.27 16.48 L 37.27 16.48 Q 35.85 14.8 35.85 11.7 L 35.85 11.7 L 35.85 11.7 Q 35.85 8.5 37.34 6.78 L 37.34 6.78 L 37.34 6.78 Q 38.83 5.06 41.61 5.06 L 41.61 5.06 L 41.61 5.06 Q 44.23 5.06 45.64 6.69 L 45.64 6.69 L 45.64 6.69 Q 47.05 8.32 47.05 11.4 L 47.05 11.4 L 47.05 11.4 Q 47.05 13.98 46.07 15.64 L 46.07 15.64 L 46.07 15.64 Q 45.09 17.3 43.27 17.88 L 43.27 17.88 L 43.27 17.88 Q 46.15 19.9 49.69 20.56 L 49.69 20.56 L 49.69 20.56 Z  M 37.49 11.56 L 37.49 11.56 Q 37.49 16.82 41.43 16.82 L 41.43 16.82 L 41.43 16.82 Q 43.37 16.82 44.38 15.5 L 44.38 15.5 L 44.38 15.5 Q 45.39 14.18 45.39 11.54 L 45.39 11.54 L 45.39 11.54 Q 45.39 6.38 41.45 6.38 L 41.45 6.38 L 41.45 6.38 Q 39.45 6.38 38.47 7.66 L 38.47 7.66 L 38.47 7.66 Q 37.49 8.94 37.49 11.56 L 37.49 11.56 L 37.49 11.56 Z  M 58.91 5.18 L 58.89 11.7 L 58.87 13.14 L 58.87 13.14 Q 58.91 15.5 57.63 16.82 L 57.63 16.82 L 57.63 16.82 Q 56.35 18.14 53.99 18.14 L 53.99 18.14 L 53.99 18.14 Q 51.73 18.14 50.52 16.88 L 50.52 16.88 L 50.52 16.88 Q 49.31 15.62 49.35 13.32 L 49.35 13.32 L 49.37 11.58 L 49.35 5.18 L 50.93 5.18 L 50.87 13.12 L 50.87 13.12 Q 50.85 14.92 51.67 15.83 L 51.67 15.83 L 51.67 15.83 Q 52.49 16.74 54.11 16.74 L 54.11 16.74 L 54.11 16.74 Q 55.73 16.74 56.57 15.88 L 56.57 15.88 L 56.57 15.88 Q 57.41 15.02 57.39 13.32 L 57.39 13.32 L 57.31 5.18 L 58.91 5.18 L 58.91 5.18 Z  M 66.89 5.18 L 71.17 18 L 69.53 18 L 69.23 16.72 L 68.51 14.52 L 65.63 14.46 L 63.03 14.52 L 62.25 16.64 L 61.93 18 L 60.33 18 L 65.03 5.18 L 66.89 5.18 L 66.89 5.18 Z  M 65.77 13.2 L 68.07 13.16 L 65.99 6.84 L 65.85 6.84 L 63.53 13.16 L 65.77 13.2 L 65.77 13.2 Z  M 78.69 12.82 L 78.69 12.82 Q 80.01 15 82.01 17.62 L 82.01 17.62 L 81.99 17.82 L 81.99 17.82 Q 81.27 18.1 80.51 18.18 L 80.51 18.18 L 80.29 18.04 L 80.29 18.04 Q 78.65 15.58 77.35 13.24 L 77.35 13.24 L 75.01 13.24 L 75.01 14 L 75.09 18 L 73.47 18 L 73.57 14.14 L 73.47 5.18 L 77.39 5.16 L 77.39 5.16 Q 79.27 5.16 80.3 6.11 L 80.3 6.11 L 80.3 6.11 Q 81.33 7.06 81.33 8.82 L 81.33 8.82 L 81.33 8.82 Q 81.33 10.14 80.64 11.19 L 80.64 11.19 L 80.64 11.19 Q 79.95 12.24 78.69 12.82 L 78.69 12.82 L 78.69 12.82 Z  M 75.09 6.54 L 75.03 11.88 L 77.43 11.94 L 77.43 11.94 Q 79.67 11.3 79.67 8.96 L 79.67 8.96 L 79.67 8.96 Q 79.67 7.74 79.01 7.13 L 79.01 7.13 L 79.01 7.13 Q 78.35 6.52 77.03 6.48 L 77.03 6.48 L 75.09 6.54 L 75.09 6.54 Z  M 91.79 16.6 L 91.89 16.76 L 91.77 18 L 84.57 18 L 84.67 14.14 L 84.57 5.18 L 91.79 5.18 L 91.87 5.34 L 91.75 6.58 L 88.73 6.52 L 86.19 6.56 L 86.15 10.76 L 88.55 10.8 L 90.67 10.74 L 90.79 10.88 L 90.65 12.12 L 88.41 12.08 L 86.13 12.1 L 86.11 14 L 86.17 16.66 L 88.71 16.68 L 91.79 16.6 L 91.79 16.6 Z " fill="rgb(255,255,255)"/></g></svg>