<?xml version="1.0" standalone="no"?><!-- Generator: Gravit.io --><svg xmlns="http://www.w3.org/2000/svg" xmlns:xlink="http://www.w3.org/1999/xlink" style="isolation:isolate" viewBox="0 0 120 120" width="120" height="120"><defs><clipPath id="_clipPath_e0E9Nd9M4xNBp0qC7suxPLSO09Yxy7VH"><rect width="120" height="120"/></clipPath></defs><g clip-path="url(#_clipPath_e0E9Nd9M4xNBp0qC7suxPLSO09Yxy7VH)"><circle vector-effect="non-scaling-stroke" cx="60" cy="60" r="28" fill="none" stroke-width="1.5" stroke="rgb(255,255,255)" stroke-linejoin="miter" stroke-linecap="butt" stroke-miterlimit="4"/><path d=" M 29.61 5.08 L 29.61 5.08 Q 30.99 5.08 32.47 5.68 L 32.47 5.68 L 32.21 7.22 L 31.93 7.3 L 31.93 7.3 Q 31.35 6.86 30.7 6.62 L 30.7 6.62 L 30.7 6.62 Q 30.05 6.38 29.41 6.38 L 29.41 6.38 L 29.41 6.38 Q 28.67 6.38 28.12 6.68 L 28.12 6.68 L 28.12 6.68 Q 27.57 6.98 27.28 7.46 L 27.28 7.46 L 27.28 7.46 Q 26.99 7.94 26.99 8.46 L 26.99 8.46 L 26.99 8.46 Q 26.99 9 27.32 9.41 L 27.32 9.41 L 27.32 9.41 Q 27.65 9.82 28.15 10.12 L 28.15 10.12 L 28.15 10.12 Q 28.65 10.42 29.51 10.84 L 29.51 10.84 L 29.51 10.84 Q 30.59 11.34 31.25 11.77 L 31.25 11.77 L 31.25 11.77 Q 31.91 12.2 32.38 12.86 L 32.38 12.86 L 32.38 12.86 Q 32.85 13.52 32.85 14.46 L 32.85 14.46 L 32.85 14.46 Q 32.85 15.46 32.31 16.3 L 32.31 16.3 L 32.31 16.3 Q 31.77 17.14 30.79 17.64 L 30.79 17.64 L 30.79 17.64 Q 29.81 18.14 28.55 18.14 L 28.55 18.14 L 28.55 18.14 Q 27.71 18.14 26.8 17.91 L 26.8 17.91 L 26.8 17.91 Q 25.89 17.68 25.11 17.24 L 25.11 17.24 L 25.31 15.6 L 25.53 15.5 L 25.53 15.5 Q 26.23 16.18 27.08 16.51 L 27.08 16.51 L 27.08 16.51 Q 27.93 16.84 28.71 16.84 L 28.71 16.84 L 28.71 16.84 Q 29.47 16.84 30.06 16.54 L 30.06 16.54 L 30.06 16.54 Q 30.65 16.24 30.96 15.74 L 30.96 15.74 L 30.96 15.74 Q 31.27 15.24 31.27 14.68 L 31.27 14.68 L 31.27 14.68 Q 31.27 13.84 30.63 13.33 L 30.63 13.33 L 30.63 13.33 Q 29.99 12.82 28.69 12.22 L 28.69 12.22 L 28.69 12.22 Q 27.63 11.7 26.99 11.29 L 26.99 11.29 L 26.99 11.29 Q 26.35 10.88 25.89 10.23 L 25.89 10.23 L 25.89 10.23 Q 25.43 9.58 25.43 8.64 L 25.43 8.64 L 25.43 8.64 Q 25.43 7.66 25.96 6.84 L 25.96 6.84 L 25.96 6.84 Q 26.49 6.02 27.44 5.55 L 27.44 5.55 L 27.44 5.55 Q 28.39 5.08 29.61 5.08 L 29.61 5.08 L 29.61 5.08 Z  M 42.65 5.18 L 42.77 5.34 L 42.65 6.58 L 40.41 6.46 L 39.11 6.46 L 39.05 14 L 39.11 18 L 37.49 18 L 37.61 14.14 L 37.51 6.46 L 36.21 6.46 L 33.93 6.58 L 33.83 6.42 L 33.95 5.18 L 42.65 5.18 L 42.65 5.18 Z  M 48.93 5.18 L 53.21 18 L 51.57 18 L 51.27 16.72 L 50.55 14.52 L 47.67 14.46 L 45.07 14.52 L 44.29 16.64 L 43.97 18 L 42.37 18 L 47.07 5.18 L 48.93 5.18 L 48.93 5.18 Z  M 47.81 13.2 L 50.11 13.16 L 48.03 6.84 L 47.89 6.84 L 45.57 13.16 L 47.81 13.2 L 47.81 13.2 Z  M 61.81 5.18 L 61.93 5.34 L 61.81 6.58 L 59.57 6.46 L 58.27 6.46 L 58.21 14 L 58.27 18 L 56.65 18 L 56.77 14.14 L 56.67 6.46 L 55.37 6.46 L 53.09 6.58 L 52.99 6.42 L 53.11 5.18 L 61.81 5.18 L 61.81 5.18 Z  M 65.85 5.18 L 65.75 14 L 65.83 18 L 64.21 18 L 64.31 14.14 L 64.21 5.18 L 65.85 5.18 L 65.85 5.18 Z  M 73.87 5.06 L 73.87 5.06 Q 76.51 5.06 77.92 6.68 L 77.92 6.68 L 77.92 6.68 Q 79.33 8.3 79.33 11.34 L 79.33 11.34 L 79.33 11.34 Q 79.33 14.62 77.83 16.39 L 77.83 16.39 L 77.83 16.39 Q 76.33 18.16 73.55 18.16 L 73.55 18.16 L 73.55 18.16 Q 70.95 18.16 69.54 16.48 L 69.54 16.48 L 69.54 16.48 Q 68.13 14.8 68.13 11.7 L 68.13 11.7 L 68.13 11.7 Q 68.13 8.5 69.62 6.78 L 69.62 6.78 L 69.62 6.78 Q 71.11 5.06 73.87 5.06 L 73.87 5.06 L 73.87 5.06 Z  M 73.77 6.36 L 73.77 6.36 Q 69.77 6.36 69.77 11.52 L 69.77 11.52 L 69.77 11.52 Q 69.77 14.26 70.74 15.58 L 70.74 15.58 L 70.74 15.58 Q 71.71 16.9 73.67 16.9 L 73.67 16.9 L 73.67 16.9 Q 77.67 16.9 77.67 11.64 L 77.67 11.64 L 77.67 11.64 Q 77.67 8.96 76.7 7.66 L 76.7 7.66 L 76.7 7.66 Q 75.73 6.36 73.77 6.36 L 73.77 6.36 L 73.77 6.36 Z  M 91.87 5.14 L 91.77 14.24 L 91.81 18 L 90.13 18 L 83.49 7.74 L 83.39 7.74 L 83.37 13.78 L 83.39 18 L 81.95 18 L 82.01 14.2 L 81.97 5.18 L 83.63 5.18 L 90.25 15.44 L 90.39 15.44 L 90.37 5.26 L 91.87 5.14 L 91.87 5.14 Z " fill="rgb(255,255,255)"/></g></svg>
