<svg width="20" height="32" viewBox="0 0 20 32" fill="none" xmlns="http://www.w3.org/2000/svg">
<path fill-rule="evenodd" clip-rule="evenodd" d="M2.86986 2.99472C4.76135 1.07721 7.32652 0 10.0012 0C12.6759 0 15.2411 1.07721 17.1326 2.99472L17.133 2.99513C21.0973 7.0181 20.8677 13.5987 16.9561 17.5649C16.9081 17.6136 16.8558 17.6578 16.7998 17.6969C16.7955 17.7001 16.7835 17.7094 16.7646 17.725C16.7255 17.7574 16.6574 17.8172 16.5694 17.9082C16.3936 18.0897 16.1369 18.3965 15.8721 18.859C15.3469 19.776 14.7628 21.3527 14.7628 23.8636C14.7628 24.4912 14.261 25 13.6421 25H6.35753C5.73858 25 5.23682 24.4912 5.23682 23.8636C5.23682 21.3527 4.65269 19.776 4.12756 18.859C3.86273 18.3965 3.60598 18.0897 3.43025 17.9082C3.34219 17.8172 3.27407 17.7574 3.235 17.725C3.21617 17.7094 3.2041 17.7002 3.19981 17.6969C3.14387 17.6578 3.09155 17.6136 3.04349 17.5649C-0.868152 13.5986 -1.09778 7.0178 2.86978 2.99481L2.86986 2.99472ZM4.57069 15.8987C4.59524 15.9178 4.62297 15.94 4.65359 15.9654C4.75241 16.0473 4.8813 16.1627 5.02963 16.3159C5.3267 16.6227 5.70034 17.0794 6.06591 17.7178C6.70072 18.8263 7.2916 20.4485 7.44167 22.7273H12.558C12.708 20.4485 13.2989 18.8263 13.9337 17.7178C14.2993 17.0794 14.6729 16.6227 14.97 16.3159C15.1183 16.1627 15.2472 16.0473 15.346 15.9654C15.3766 15.94 15.4044 15.9178 15.4289 15.8987C18.4652 12.7577 18.5628 7.66201 15.5478 4.60195C15.5477 4.60185 15.5476 4.60175 15.5475 4.60164C15.5475 4.60161 15.5474 4.60158 15.5474 4.60154C14.0763 3.1104 12.0813 2.27272 10.0012 2.27272C7.92094 2.27272 5.92584 3.11052 4.45469 4.60186C4.45466 4.60189 4.45464 4.60192 4.45461 4.60195M4.57069 15.8987C1.53432 12.7577 1.43686 7.66196 4.45461 4.60195L4.57069 15.8987ZM16.7881 17.705C16.7879 17.7052 16.7877 17.7053 16.7875 17.7054L16.7879 17.7052L16.7881 17.705Z" fill="white"/>
<path fill-rule="evenodd" clip-rule="evenodd" d="M7 31C7 30.4477 7.6268 30 8.4 30H12.6C13.3732 30 14 30.4477 14 31C14 31.5523 13.3732 32 12.6 32H8.4C7.6268 32 7 31.5523 7 31Z" fill="white"/>
<path fill-rule="evenodd" clip-rule="evenodd" d="M6 28C6 27.4477 6.57563 27 7.28571 27H13.7143C14.4244 27 15 27.4477 15 28C15 28.5523 14.4244 29 13.7143 29H7.28571C6.57563 29 6 28.5523 6 28Z" fill="white"/>
</svg>
